<?xml version="1.0" standalone="no"?>
<!DOCTYPE svg PUBLIC "-//W3C//DTD SVG 20010904//EN"
 "http://www.w3.org/TR/2001/REC-SVG-20010904/DTD/svg10.dtd">
<svg version="1.0" xmlns="http://www.w3.org/2000/svg"
 width="350.000000pt" height="350.000000pt" viewBox="0 0 350.000000 350.000000"
 preserveAspectRatio="xMidYMid meet">
<metadata>
Created by potrace 1.11, written by Peter Selinger 2001-2013
</metadata>
<g transform="translate(0.000000,350.000000) scale(0.100000,-0.100000)"
fill="#000000" stroke="none">
<path d="M1206 3379 c-26 -20 -76 -116 -76 -145 0 -21 -101 -114 -125 -114
-40 0 -66 12 -60 28 4 12 3 13 -9 2 -12 -10 -21 -8 -45 9 -16 12 -34 21 -39
21 -13 0 -60 62 -85 110 -26 52 -39 65 -74 83 -67 35 -134 15 -171 -52 -13
-23 -28 -41 -33 -41 -10 0 -34 -49 -31 -62 1 -5 -3 -8 -10 -8 -6 0 -9 -3 -5
-6 3 -4 -1 -20 -9 -36 -8 -16 -12 -33 -9 -38 3 -6 -2 -10 -12 -10 -12 0 -14
-3 -6 -8 8 -5 9 -13 3 -22 -6 -8 -10 -29 -10 -47 0 -31 -28 -103 -40 -103 -3
0 -7 -11 -8 -25 -1 -14 3 -25 8 -25 6 0 9 -3 9 -7 -3 -20 2 -31 17 -37 13 -5
14 -4 6 7 -7 8 -8 18 -4 22 4 5 1 5 -5 1 -9 -5 -11 -2 -7 8 5 12 9 13 19 3 7
-7 9 -14 3 -16 -5 -1 -2 -12 8 -22 11 -12 13 -19 5 -19 -7 0 -9 -4 -6 -10 10
-17 -4 -11 -27 10 -12 11 -24 18 -26 15 -3 -3 7 -14 22 -26 23 -18 27 -29 26
-68 0 -25 0 -53 0 -61 1 -8 -2 -48 -6 -87 -5 -54 -4 -73 5 -73 7 0 9 5 6 10
-3 6 -1 10 4 10 6 0 11 -10 11 -22 0 -13 2 -54 5 -91 3 -37 1 -66 -3 -63 -5 3
-9 -2 -9 -10 0 -8 6 -13 13 -10 24 9 37 -21 30 -69 -4 -26 -3 -45 2 -45 5 0
14 -30 20 -67 20 -130 39 -193 64 -216 17 -16 28 -43 38 -95 9 -50 20 -78 33
-87 16 -11 18 -22 14 -67 -3 -29 -10 -75 -16 -102 -8 -35 -8 -53 0 -62 6 -7
14 -37 19 -66 4 -29 16 -78 25 -108 28 -93 36 -143 31 -187 -4 -30 -1 -45 10
-54 13 -10 15 -25 10 -65 -3 -28 -2 -64 3 -80 9 -26 21 -140 25 -221 0 -18 4
-33 9 -33 4 0 7 -6 7 -14 0 -8 8 -21 18 -28 11 -8 21 -31 24 -55 3 -23 16 -54
27 -69 17 -22 20 -36 16 -74 -4 -40 -2 -51 19 -73 13 -14 27 -23 30 -20 12 12
6 -8 -9 -30 -19 -29 -18 -117 2 -139 11 -12 24 -15 49 -11 37 6 47 -7 53 -70
1 -4 7 -7 14 -6 25 5 75 -13 81 -28 4 -9 9 -13 12 -10 4 3 13 0 20 -8 10 -10
22 -11 44 -5 23 7 32 5 39 -8 5 -9 13 -14 16 -10 4 4 18 3 31 -2 18 -7 22 -6
18 5 -5 11 0 12 24 6 37 -11 48 -4 57 36 8 38 14 44 43 37 12 -4 27 -22 36
-45 16 -39 17 -40 61 -37 25 2 45 6 45 9 0 10 35 6 42 -4 6 -10 45 26 91 82
14 18 21 20 38 11 21 -12 59 -5 59 10 0 5 10 10 23 12 20 3 23 12 35 88 11 68
11 95 1 135 -20 84 -22 141 -4 158 8 9 15 22 15 29 0 7 20 52 44 100 24 48 47
103 50 122 8 44 41 55 70 22 30 -33 46 -63 46 -85 0 -11 19 -39 43 -63 44 -44
74 -99 63 -117 -8 -12 53 -111 69 -111 6 0 18 -12 26 -27 21 -43 57 -73 87
-74 15 -1 52 -2 82 -4 56 -3 77 3 104 30 21 22 99 55 106 46 3 -4 17 -11 32
-14 15 -4 34 -14 42 -23 9 -8 21 -12 27 -8 8 5 9 3 4 -6 -6 -10 -4 -12 7 -7 9
3 20 1 24 -3 5 -5 28 -10 51 -12 22 -2 39 -6 36 -10 -7 -13 12 -9 27 5 12 10
12 9 2 -4 -10 -13 -7 -20 17 -42 16 -14 31 -23 34 -21 3 3 4 -3 3 -13 -2 -31
64 -30 102 1 16 15 41 26 55 26 24 0 25 -3 20 -35 -6 -39 -3 -41 35 -21 17 8
35 10 47 5 38 -15 74 -10 85 12 7 11 17 18 24 16 8 -3 23 7 34 22 21 28 17 47
-15 79 -15 16 -17 54 -4 68 15 14 16 96 2 122 -21 38 -41 118 -40 153 0 19 -6
59 -15 89 -19 65 -20 107 -3 113 8 3 6 13 -10 35 -25 34 -22 58 8 67 10 4 19
13 19 21 0 8 4 12 10 9 5 -3 3 7 -4 22 -8 15 -26 51 -40 79 l-25 51 32 43 c29
40 32 50 31 115 0 68 -25 177 -46 202 -6 8 -7 28 -3 50 15 71 4 175 -21 204
-8 8 -17 30 -20 48 -4 19 -24 51 -45 72 -22 22 -46 54 -55 72 -9 18 -29 48
-44 67 -15 19 -34 49 -43 66 -10 20 -36 42 -68 58 -28 15 -61 36 -72 47 -11
10 -37 21 -56 25 -20 3 -78 19 -130 36 -94 31 -94 31 -245 23 -83 -4 -173 -7
-201 -5 -63 4 -93 3 -175 -5 -36 -3 -85 -7 -110 -9 -25 -2 -74 -9 -110 -15
-71 -13 -124 -8 -187 19 -50 22 -70 51 -92 133 -9 34 -34 89 -55 121 -39 59
-39 60 -38 160 0 56 -6 132 -14 169 -8 38 -14 85 -14 106 0 41 -56 236 -83
287 -20 39 -74 94 -91 94 -8 0 -25 -9 -40 -21z"/>
<path d="M1534 2622 c4 -3 14 -7 22 -8 9 -1 13 0 10 4 -4 3 -14 7 -22 8 -9 1
-13 0 -10 -4z"/>
<path d="M415 2330 c-3 -6 1 -7 9 -4 18 7 21 14 7 14 -6 0 -13 -4 -16 -10z"/>
<path d="M431 2311 c-8 -5 -9 -11 -3 -15 5 -3 12 1 16 9 6 17 6 18 -13 6z"/>
</g>
</svg>
